# xmcd
#
# Track frame offsets:
#	150
#	17547
#	27454
#	39678
#	53980
#	66733
#	76514
#	88620
#	99557
#	110732
#	121510
#	132021
#	145207
#	154877
#	171844
#	182603
#	193708
#	205171
#	217867
#
# Disc length: 3075
#
# Revision: 2
# Processed by: cddbd v1.5.1PL0 Copyright (c) Steve Scherf et al.
# Submitted via: ExactAudioCopy v0.95a3
# Normalized: r0:TRMNUM;r1:TDELIM( - ),TSWAP
#
DISCID=040c0113
DTITLE=Various Artist - TRUCKIN´ Marvellous!
DYEAR=1900
DGENRE=Truck Country
TTITLE0=JJ.Truckin´ Gang - Convoj (trackin marvellous theme)
TTITLE1=Dave Dudley - Six Days On The Road
TTITLE2=Red Simpson - Roll Truck Roll
TTITLE3=Jim Reeves - Highway To Nowhere
TTITLE4=Billie Jo Spears - Dallas
TTITLE5=Gene Vincent - I´m Movin´ On
TTITLE6=Carl Perkins - Every Road
TTITLE7=Dolly Parton - (It wasn´t God who made) Honky Tonk Angels
TTITLE8=Ferlin Husky - San Antonio Rose
TTITLE9=Freddy Fender - The Wild Side of Life
TTITLE10=Rick Nelson - Travelin´Man
TTITLE11=Kenny Rogers - Ruby (Don´t take your love to town)
TTITLE12=Merl Travis - Sixteen Tons
TTITLE13=Glenn Campbell - Southern Nights
TTITLE14=Merril E Moore - Down The Road a Piece
TTITLE15=Bobby Bare - That´s How I Got To Memphis
TTITLE16=Patsy Cline - Walkin´ After Midninght
TTITLE17=Faron Young - Four In The Morning
TTITLE18=Cowboy Copas - Wreck On The Highway
EXTD=
EXTT0=
EXTT1=
EXTT2=
EXTT3=
EXTT4=
EXTT5=
EXTT6=
EXTT7=
EXTT8=
EXTT9=
EXTT10=
EXTT11=
EXTT12=
EXTT13=
EXTT14=
EXTT15=
EXTT16=
EXTT17=
EXTT18=
PLAYORDER=
